<svg xmlns="http://www.w3.org/2000/svg" version="1.1" width="270" height="90">
    <!-- White pieces -->
    <g style="fill:none; fill-opacity:1; fill-rule:evenodd; stroke:#000000; stroke-width:1.5; stroke-linecap:round;stroke-linejoin:round;stroke-miterlimit:4; stroke-dasharray:none; stroke-opacity:1;" transform="translate(0,0)">
        <path d="M 22.5,9 C 20,9 18,10.5 18,13.5 C 18,16.5 20,18 22.5,18 C 25,18 27,16.5 27,13.5 C 27,10.5 25,9 22.5,9 z" style="fill:#ffffff; stroke:#000000;"/>
        <path d="M 11.5,37 C 17,40.5 27,40.5 32.5,37 L 32.5,30 C 32.5,30 41.5,25.5 38.5,19.5 C 34.5,13 25,16 22.5,23.5 L 22.5,27 L 22.5,23.5 C 19,16 9.5,13 6.5,19.5 C 3.5,25.5 11.5,29.5 11.5,29.5 L 11.5,37 z" style="fill:#ffffff; stroke:#000000;"/>
        <path d="M 11.5,30 C 17,27 27,27 32.5,30" style="fill:none; stroke:#000000;"/>
        <path d="M 11.5,33.5 C 17,30.5 27,30.5 32.5,33.5" style="fill:none; stroke:#000000;"/>
        <path d="M 11.5,37 C 17,34 27,34 32.5,37" style="fill:none; stroke:#000000;"/>
    </g>

    <!-- Black pieces -->
    <g style="fill:none; fill-opacity:1; fill-rule:evenodd; stroke:#000000; stroke-width:1.5; stroke-linecap:round;stroke-linejoin:round;stroke-miterlimit:4; stroke-dasharray:none; stroke-opacity:1;" transform="translate(45,0)">
        <path d="M 22.5,9 C 20,9 18,10.5 18,13.5 C 18,16.5 20,18 22.5,18 C 25,18 27,16.5 27,13.5 C 27,10.5 25,9 22.5,9 z" style="fill:#000000;"/>
        <path d="M 11.5,37 C 17,40.5 27,40.5 32.5,37 L 32.5,30 C 32.5,30 41.5,25.5 38.5,19.5 C 34.5,13 25,16 22.5,23.5 L 22.5,27 L 22.5,23.5 C 19,16 9.5,13 6.5,19.5 C 3.5,25.5 11.5,29.5 11.5,29.5 L 11.5,37 z" style="fill:#000000;"/>
        <path d="M 11.5,30 C 17,27 27,27 32.5,30" style="fill:none; stroke:#ffffff;"/>
        <path d="M 11.5,33.5 C 17,30.5 27,30.5 32.5,33.5" style="fill:none; stroke:#ffffff;"/>
        <path d="M 11.5,37 C 17,34 27,34 32.5,37" style="fill:none; stroke:#ffffff;"/>
    </g>

    <!-- More pieces can be added here -->
</svg>
